<svg width="168" height="168" viewBox="0 0 168 168" fill="none" xmlns="http://www.w3.org/2000/svg">
<path fill-rule="evenodd" clip-rule="evenodd" d="M84 0.666809C37.9765 0.666809 0.666748 37.9766 0.666748 84C0.666748 130.023 37.9765 167.334 84 167.334C130.023 167.334 167.334 130.023 167.334 84C167.334 37.9766 130.024 0.666809 84 0.666809ZM84 150.667C47.2402 150.667 17.3335 120.76 17.3335 84C17.3335 47.2399 47.2398 17.3336 84 17.3336C120.76 17.3336 150.667 47.2399 150.667 84C150.667 120.76 120.76 150.667 84 150.667ZM115.381 54.227L127.165 66.011L75.6667 117.725L44.775 86.8332L56.5585 75.0492L75.6667 94.1574L115.381 54.227Z" fill="#077D16"/>
</svg>
