
<svg width="18" height="18" viewBox="0 0 18 18" fill="none" xmlns="http://www.w3.org/2000/svg">
<path d="M7.17037 5.7307C7.54439 5.35667 7.54439 4.75026 7.17037 4.37624C6.79634 4.00221 6.18993 4.00221 5.8159 4.37624C5.44188 4.75026 5.44188 5.35667 5.8159 5.7307C6.18993 6.10472 6.79634 6.10472 7.17037 5.7307Z" fill="#3E3E3E"/>
<path d="M3.50195 7.87504V4.31104C3.50195 3.7143 3.73901 3.142 4.16096 2.72005C4.58292 2.29809 5.15522 2.06104 5.75195 2.06104H9.65195C9.8982 2.06099 10.142 2.10945 10.3696 2.20365C10.5971 2.29784 10.8038 2.43594 10.978 2.61004L15.8117 7.44454C16.3741 8.00712 16.6901 8.77004 16.6901 9.56553C16.6901 10.361 16.3741 11.124 15.8117 11.6865L13.1275 14.3715C12.7261 14.7731 12.219 15.0525 11.6651 15.1773C11.1112 15.3021 10.5333 15.2672 9.99845 15.0765" stroke="#3E3E3E" stroke-width="1.5" stroke-linecap="round" stroke-linejoin="round"/>
<path fill-rule="evenodd" clip-rule="evenodd" d="M4.875 17.25C5.96902 17.25 7.01823 16.8154 7.79182 16.0418C8.5654 15.2682 9 14.219 9 13.125C9 12.031 8.5654 10.9818 7.79182 10.2082C7.01823 9.4346 5.96902 9 4.875 9C3.78098 9 2.73177 9.4346 1.95818 10.2082C1.1846 10.9818 0.75 12.031 0.75 13.125C0.75 14.219 1.1846 15.2682 1.95818 16.0418C2.73177 16.8154 3.78098 17.25 4.875 17.25ZM4.875 10.5052C4.97446 10.5052 5.06984 10.5448 5.14016 10.6151C5.21049 10.6854 5.25 10.7808 5.25 10.8802V12.75H7.11975C7.21921 12.75 7.31459 12.7895 7.38492 12.8598C7.45524 12.9302 7.49475 13.0255 7.49475 13.125C7.49475 13.2245 7.45524 13.3198 7.38492 13.3902C7.31459 13.4605 7.21921 13.5 7.11975 13.5H5.25V15.3698C5.25 15.4692 5.21049 15.5646 5.14016 15.6349C5.06984 15.7052 4.97446 15.7448 4.875 15.7448C4.77554 15.7448 4.68016 15.7052 4.60984 15.6349C4.53951 15.5646 4.5 15.4692 4.5 15.3698V13.5H2.63025C2.53079 13.5 2.43541 13.4605 2.36509 13.3902C2.29476 13.3198 2.25525 13.2245 2.25525 13.125C2.25525 13.0255 2.29476 12.9302 2.36509 12.8598C2.43541 12.7895 2.53079 12.75 2.63025 12.75H4.5V10.8802C4.5 10.7808 4.53951 10.6854 4.60984 10.6151C4.68016 10.5448 4.77554 10.5052 4.875 10.5052Z" fill="#3E3E3E"/>
</svg>
